# xmcd
#
# Track frame offsets:
#	150
#	14188
#	23200
#	34250
#	45895
#	55270
#	64807
#	76882
#	85245
#	95213
#	114013
#	123875
#	137450
#	150700
#	163445
#
# Disc length: 2318 seconds
#
# Revision: 1
# Processed by: cddbd v1.5.2PL0 Copyright (c) Steve Scherf et al.
# Submitted via: audiograbber 1.83.01
#
DISCID=bf090c0f
DTITLE=Various Artist - Country Giants CD 2
DYEAR=2007
DGENRE=Country
TTITLE0=Dave Dudley - Ballad Of Forty Dollars
TTITLE1=George Jones - Singin' The Blues
TTITLE2=Roger Miller - King Of The Road
TTITLE3=Jerry Lee Lewis - What's Made Milwaukee Famous
TTITLE4=Charlie Rich - Lonely Weekends
TTITLE5=Dave Dudley - Don't Fence Me In
TTITLE6=Roy Druskey - Four Strong Winds
TTITLE7=Roger Miller - Dang Me
TTITLE8=Dave Dudley - Six Days On The Road
TTITLE9=Tom T Hall - Old Dogs, Children And Watermelon Wine
TTITLE10=George Jones - I Walk The Line
TTITLE11=Patti Page - The Tennessee Waltz
TTITLE12=Faron Young - San Antonio Rose
TTITLE13=Johnny Tillotson - It Keeps Right On A Hurtin'
TTITLE14=Jerry Lee Lewis - He'll Have To Go
EXTD=
EXTT0=
EXTT1=
EXTT2=
EXTT3=
EXTT4=
EXTT5=
EXTT6=
EXTT7=
EXTT8=
EXTT9=
EXTT10=
EXTT11=
EXTT12=
EXTT13=
EXTT14=
PLAYORDER=
